<?xml version="1.0" standalone="no"?>
<!DOCTYPE svg PUBLIC "-//W3C//DTD SVG 20010904//EN"
 "http://www.w3.org/TR/2001/REC-SVG-20010904/DTD/svg10.dtd">
<svg version="1.0" xmlns="http://www.w3.org/2000/svg"
 width="512.000000pt" height="512.000000pt" viewBox="0 0 512.000000 512.000000"
 preserveAspectRatio="xMidYMid meet">
<metadata>
Created by potrace 1.11, written by Peter Selinger 2001-2013
</metadata>
<g transform="translate(0.000000,512.000000) scale(0.100000,-0.100000)"
fill="#000000" stroke="none">
<path d="M2390 5114 c-19 -2 -78 -9 -130 -14 -466 -51 -974 -270 -1340 -578
-111 -93 -282 -267 -362 -367 -402 -507 -604 -1174 -548 -1805 46 -510 235
-987 548 -1385 72 -91 317 -336 409 -408 363 -286 813 -473 1293 -538 140 -19
509 -16 645 5 415 64 759 196 1089 418 280 188 548 464 731 753 72 114 193
360 240 489 117 319 171 698 147 1036 -50 714 -371 1348 -912 1802 -363 305
-847 516 -1330 578 -89 12 -419 21 -480 14z m420 -938 c378 -62 692 -221 954
-482 265 -265 434 -603 486 -974 15 -109 15 -351 0 -460 -98 -696 -599 -1254
-1278 -1424 -151 -38 -244 -49 -412 -49 -168 0 -261 11 -412 49 -554 138
-1013 553 -1194 1078 -69 201 -96 361 -96 571 0 278 56 524 172 755 255 507
705 838 1270 935 104 18 404 18 510 1z"/>
<path d="M2469 3387 c-52 -35 -79 -82 -79 -139 0 -54 10 -80 47 -120 l25 -26
-34 -104 -35 -103 -399 -5 c-385 -5 -400 -6 -439 -27 -47 -25 -85 -64 -111
-113 -18 -32 -19 -69 -22 -493 -3 -394 -1 -466 13 -513 20 -68 61 -116 125
-143 l50 -21 954 2 954 3 43 30 c24 17 57 53 74 80 l30 48 3 456 c4 517 2 535
-58 604 -72 82 -72 82 -512 85 l-387 3 -34 103 -34 102 28 32 c100 112 27 282
-122 282 -31 0 -57 -7 -80 -23z m966 -732 l25 -24 0 -398 c0 -345 -2 -402 -16
-421 l-15 -22 -348 0 -348 0 -44 44 c-90 89 -214 86 -296 -7 l-32 -37 -342 0
c-305 0 -344 2 -361 17 -17 15 -18 42 -18 424 l0 408 26 20 c27 21 32 21 886
21 l859 0 24 -25z"/>
<path d="M2031 2430 c-79 -19 -143 -100 -149 -187 -11 -163 156 -272 304 -198
82 41 125 130 109 225 -8 47 -57 116 -100 141 -36 21 -118 31 -164 19z"/>
<path d="M2946 2433 c-42 -11 -95 -56 -121 -104 -23 -44 -27 -60 -23 -114 3
-45 11 -73 28 -99 79 -115 242 -128 334 -26 72 80 74 190 4 274 -51 62 -140
90 -222 69z"/>
</g>
</svg>
